<svg width="10" height="10" viewBox="0 0 10 10" fill="none" xmlns="http://www.w3.org/2000/svg">
<path d="M1.51252 9.38756C1.49539 9.46089 1.49508 9.53715 1.51162 9.61061C1.52816 9.68408 1.56111 9.75285 1.60801 9.81177C1.65491 9.87069 1.71454 9.91823 1.78243 9.95083C1.85032 9.98343 1.92471 10.0002 2.00002 10C2.09879 10 2.19535 9.97079 2.27753 9.91601L5.00004 8.10118L7.72256 9.91601C7.80773 9.97255 7.90817 10.0017 8.01038 9.99941C8.11258 9.99717 8.21165 9.96369 8.29426 9.90347C8.37687 9.84325 8.43905 9.75918 8.47245 9.66257C8.50584 9.56595 8.50885 9.46143 8.48106 9.36306L7.56656 6.16338L9.83457 4.12258C9.90721 4.05718 9.95908 3.97192 9.98378 3.87736C10.0085 3.78279 10.0049 3.68306 9.97352 3.5905C9.94213 3.49794 9.8843 3.41661 9.80717 3.35656C9.73004 3.29652 9.63701 3.2604 9.53957 3.25266L6.68905 3.02569L5.45554 0.295455C5.41626 0.207519 5.35236 0.132831 5.27157 0.0804047C5.19077 0.0279778 5.09652 5.29343e-05 5.0002 7.51819e-08C4.90388 -5.27839e-05 4.80961 0.0277687 4.72875 0.0801068C4.6479 0.132445 4.58392 0.207063 4.54454 0.294955L3.31103 3.02569L0.460516 3.25216C0.364743 3.25975 0.273184 3.29476 0.196792 3.35302C0.1204 3.41127 0.06241 3.4903 0.0297599 3.58065C-0.00289021 3.67099 -0.00881802 3.76883 0.0126857 3.86245C0.0341894 3.95608 0.082214 4.04153 0.151014 4.10858L2.25803 6.16188L1.51252 9.38756ZM5.00004 1.71531L6.02105 3.97559L6.31505 3.99909H6.31555L8.30156 4.15657L6.66605 5.62843L6.66555 5.62943L6.43405 5.83741L6.51955 6.13588V6.13738L7.14605 8.32966L5.00004 6.8993V1.71531Z" fill="#F2C94C"/>
</svg>
